<?xml version="1.0" standalone="no"?><!DOCTYPE svg PUBLIC "-//W3C//DTD SVG 1.1//EN" "http://www.w3.org/Graphics/SVG/1.1/DTD/svg11.dtd"><svg t="1614829412310" class="icon" viewBox="0 0 1024 1024" version="1.1" xmlns="http://www.w3.org/2000/svg" p-id="2862" xmlns:xlink="http://www.w3.org/1999/xlink" width="200" height="200"><defs><style type="text/css"></style></defs><path d="M149.12474075 979.36877037c-27.54939259 0-53.3997037-10.67994075-72.81777778-30.21937778-18.44717037-18.32580741-28.5202963-42.11294815-28.64165927-66.74962962 0-24.87940741 10.43721482-49.51608889 28.64165927-67.72053334l300.25197036-284.96023704c0-0.60681482 0.12136297-1.21362963 0.12136297-1.82044444-0.36408889-36.40888889-0.48545185-84.95407408 0.9709037-114.08118518 3.15543703-67.35644445 37.0157037-103.52260741 51.4578963-115.90162964l240.1773037-240.1773037c25.12213333-25.12213333 66.14281482-25.12213333 91.26494815 0 25.12213333 25.12213333 25.12213333 66.02145185 0 91.26494815l-185.32124445 184.4717037c-0.84954075 2.91271111-1.21362963 5.82542222-1.21362962 7.64586667 0 8.98085925 7.28177778 16.26263703 16.384 16.26263703 0.72817778 0 2.91271111 0 6.79632592-2.30589629l188.59804445-188.59804444c24.27259259-24.39395555 66.87099259-24.39395555 91.26494814 0 25.12213333 25.12213333 25.12213333 66.02145185 0 91.14358518L689.79674075 445.00764445c-1.82044445 3.39816297-2.06317037 5.33997037-2.06317038 6.5536 0 8.98085925 7.28177778 16.26263703 16.384 16.26263703 2.06317037 0 4.73315555-0.9709037 8.00995555-2.91271111 0.24272592-0.12136297 0.48545185-0.24272592 0.60681483-0.36408889l179.8599111-179.85991111c25.12213333-25.12213333 66.02145185-25.12213333 91.14358518 0 25.12213333 25.12213333 25.12213333 66.02145185 0 91.14358518l-241.51229628 241.5122963c-11.16539259 12.98583703-47.33155555 46.8461037-114.56663705 50.00154074-27.30666667 1.33499259-72.45368889 1.33499259-109.83348148 0.97090371L221.3357037 949.63484445c-18.81125925 18.93262222-44.66157037 29.73392592-72.21096295 29.73392592z m279.37754073-444.55253334c-0.12136297 1.33499259-0.12136297 3.64088889-0.24272593 7.03905186-0.12136297 6.91768889-3.03407408 13.59265185-8.13131852 18.32580741L112.71585185 851.93765925c-8.00995555 8.00995555-12.86447408 19.29671111-12.86447407 30.34074075 0 10.92266667 4.61179259 21.23851852 13.34992592 29.85528889 19.17534815 19.29671111 52.55016297 19.17534815 71.60414815 0.12136296l304.7424-289.08657777c4.97588148-4.73315555 10.8013037-7.28177778 18.20444445-7.16041483 37.98660741 0.36408889 88.10951111 0.60681482 117.35798518-0.84954073 48.30245925-2.3058963 72.57505185-26.09303703 78.88592593-33.37481482l242.84728889-242.96865185c4.73315555-4.73315555 4.73315555-12.50038518 0-17.3549037-4.73315555-4.73315555-12.62174815-4.85451852-17.35490371 0L744.53143703 506.4173037c-3.64088889 3.64088889-8.00995555 5.94678518-12.74311111 7.03905185-9.22358518 4.36906667-18.44717037 6.5536-27.79211851 6.5536-37.74388148 0-68.57007408-30.70482963-68.57007408-68.4487111 0-10.55857778 2.79134815-20.87442963 8.37404445-31.31164445 1.33499259-3.2768 3.15543703-6.31087408 5.70405925-8.73813333l190.66121482-190.53985185c4.73315555-4.73315555 4.73315555-12.62174815 0-17.35490371-3.15543703-3.15543703-6.79632592-3.64088889-8.73813333-3.64088889-1.94180741 0-5.5826963 0.48545185-8.61677037 3.64088889L632.14933333 394.0352c-1.21362963 1.21362963-2.42725925 2.18453333-3.88361481 3.15543703-12.1362963 8.25268148-25.00077037 12.37902222-37.98660741 12.37902222-37.74388148 0-68.57007408-30.70482963-68.57007408-68.57007407 0-9.8304 2.42725925-21.72397037 6.5536-31.67573333 1.33499259-3.15543703 3.2768-6.06814815 5.70405927-8.61677037l189.32622222-188.96213333c4.73315555-4.73315555 4.73315555-12.62174815 0-17.3549037-4.85451852-4.85451852-12.62174815-4.73315555-17.3549037 0l-241.5122963 241.5122963c-8.61677037 7.5245037-32.52527408 31.67573333-34.70980741 80.09955555-1.33499259 28.5202963-1.21362963 77.42957037-0.84954074 113.47437037 0.12136297 1.82044445-0.12136297 3.64088889-0.36408889 5.33997036z" p-id="2863"></path><path d="M309.32385185 640.7661037c-6.67496297 0-13.34992592-2.54862222-18.44717037-7.64586667L66.84065185 408.72011852c-1.09226667-1.09226667-2.06317037-2.3058963-2.9127111-3.51952593-2.66998518-3.88361482-26.69985185-40.77795555-38.47205927-134.95561481-8.98085925-71.96823703-0.24272592-126.21748148 0.12136297-128.40201481 1.57771852-6.67496297 12.62174815-47.81700741 46.60337777-64.44373334 13.1072-6.43223703 34.46708148-11.40811852 62.2592 0.9709037 2.91271111 1.33499259 5.5826963 3.15543703 7.76722963 5.46133334l283.98933333 284.23205925c10.19448889 10.19448889 10.19448889 26.69985185 0 36.89434075-10.19448889 10.19448889-26.69985185 10.19448889-36.89434073 0L109.19632592 124.48805925c-8.61677037-2.91271111-12.74311111-0.84954075-14.19946667-0.24272592-9.95176297 4.85451852-16.99081482 22.20942222-18.44717036 28.03484445 0.12136297 0-7.28177778 48.42382222 0.60681481 111.53256297 8.73813333 70.51188148 24.75804445 102.91579259 28.88438519 110.31893333l221.73013333 222.09422222c10.19448889 10.19448889 10.19448889 26.69985185 0 36.89434073-5.09724445 5.09724445-11.77220741 7.64586667-18.44717037 7.64586667zM743.92462222 985.31555555c-20.38897778 0-42.11294815-8.98085925-64.80782222-31.67573333l-233.01688889-233.38097777c-10.19448889-10.19448889-10.19448889-26.69985185 0-36.89434075 10.19448889-10.19448889 26.69985185-10.19448889 36.89434074 0l233.0168889 233.38097778c19.41807408 19.41807408 31.19028148 31.31164445 81.92-19.41807407 27.91348148-27.91348148-3.39816297-61.65238518-7.03905186-65.41463704L610.304 650.83922963c-10.19448889-10.19448889-10.19448889-26.69985185 0-36.89434074 10.19448889-10.19448889 26.69985185-10.19448889 36.89434075 0l180.95217777 181.31626666c29.00574815 29.73392592 54.61333333 91.14358518 6.79632593 138.9605926-26.94257778 26.94257778-57.40468148 51.09380741-91.02222223 51.0938074z" p-id="2864"></path></svg>