<?xml version="1.0" standalone="no"?><!DOCTYPE svg PUBLIC "-//W3C//DTD SVG 1.1//EN" "http://www.w3.org/Graphics/SVG/1.1/DTD/svg11.dtd"><svg t="1614829397616" class="icon" viewBox="0 0 1024 1024" version="1.1" xmlns="http://www.w3.org/2000/svg" p-id="2572" xmlns:xlink="http://www.w3.org/1999/xlink" width="200" height="200"><defs><style type="text/css"></style></defs><path d="M116.28088889 333.824s105.13066667-110.47822222 107.40622222-112.75377778 4.096-4.32355555 4.096-7.73688889c-0.11377778-3.29955555-0.11377778-51.88266667-0.11377778-51.88266666 0-6.94044445-5.68888889-12.62933333-12.62933333-12.62933334h-95.57333333c-6.94044445 0-12.62933333 5.68888889-12.62933334 12.62933334v168.16355555c0 6.94044445 4.20977778 8.87466667 9.44355556 4.20977778zM1021.72444445 518.03022222c-0.91022222-19.79733333-10.24-28.10311111-17.18044445-35.04355555L552.27733333 17.29422222C540.44444445 6.71288889 525.99466667 2.048 512 2.048s-28.44444445 4.66488889-40.39111111 15.24622222L19.456 482.87288889c-6.94044445 6.82666667-16.15644445 15.24622222-17.18044445 35.04355556-0.68266667 14.90488889 10.80888889 30.49244445 20.82133334 35.04355555 10.01244445 5.34755555 18.09066667 6.03022222 25.6 6.144h30.15111111V970.52444445c0.11377778 28.55822222 22.86933333 51.31377778 51.42755555 51.42755555h232.33422223c28.55822222-0.11377778 51.31377778-22.86933333 51.42755555-51.42755555V713.04533333H603.02222222V970.52444445c0.11377778 28.44444445 22.86933333 51.31377778 51.42755556 51.42755555h239.27466667c28.55822222-0.11377778 51.31377778-22.98311111 51.42755555-51.42755555V559.21777778h30.15111111c7.50933333-0.11377778 15.58755555-0.79644445 25.6-6.144 10.12622222-4.66488889 21.61777778-20.13866667 20.82133334-35.04355556z m-138.12622223-22.18666667v464.55466667H664.576V702.91911111c-0.11377778-28.44444445-22.86933333-51.31377778-51.42755555-51.42755556H403.91111111c-28.44444445 0.11377778-51.31377778 22.98311111-51.42755556 51.42755556v257.47911111H140.40177778V549.77422222h-0.11377778v-53.81688889h-38.11555555L512 68.38044445l409.71377778 427.4631111h-38.11555556z" p-id="2573"></path></svg>