<?xml version="1.0" standalone="no"?><!DOCTYPE svg PUBLIC "-//W3C//DTD SVG 1.1//EN" "http://www.w3.org/Graphics/SVG/1.1/DTD/svg11.dtd"><svg t="1614829419101" class="icon" viewBox="0 0 1024 1024" version="1.1" xmlns="http://www.w3.org/2000/svg" p-id="3157" xmlns:xlink="http://www.w3.org/1999/xlink" width="200" height="200"><defs><style type="text/css"></style></defs><path d="M233.81706306 317.33665668c-30.73722416 0-55.63777914-24.98268826-55.63777913-55.63777913 0-30.75841963 24.90055628-55.63777914 55.63777913-55.63777915 30.75841963 0 55.63777914 24.87936081 55.63777914 55.63777915C289.4548435 292.35264411 264.57415838 317.33665668 233.81706306 317.33665668L233.81706306 317.33665668zM790.19485964 317.33665668c-30.73722416 0-55.63777914-24.98268826-55.63777914-55.63777913 0-30.75841963 24.90055628-55.63777914 55.63777914-55.63777915 30.75841963 0 55.63777914 24.87936081 55.63777913 55.63777915C845.83263877 292.35264411 820.95195365 317.33665668 790.19485964 317.33665668L790.19485964 317.33665668zM901.47041792 1012.74664029l-778.92891443 0c-61.39231504 0-111.27555957-49.86337338-111.27555959-111.27555956l0-778.92891444c0-61.33005422 49.88324324-111.27555957 111.27555959-111.27555957l778.92891443 0c61.41218619 0 111.27555957 49.94550535 111.27555957 111.27555957l0 778.92891444C1012.74597749 962.88326691 962.88260411 1012.74664029 901.47041792 1012.74664029L901.47041792 1012.74664029zM957.10819836 122.54216629c0-30.69615751-24.92175175-55.63777914-55.63777915-55.63777914l-778.92891443 0c-30.69615751 0-55.63777914 24.94162162-55.63777915 55.63777914l0 778.92891444c0 30.71735299 24.94162162 55.63777914 55.63777915 55.63777913l778.92891443 0c30.71735299 0 55.63777914-24.92175175 55.63777915-55.63777913L957.10819836 122.54216629 957.10819836 122.54216629zM512.00596135 567.6444033c-168.75600909 0-305.94552575-137.23190762-305.94552574-305.94552575 0-15.37854766 12.39795227-27.88115168 27.75662874-27.88115169 15.37854766 0 27.88115168 12.50260402 27.88115169 27.88115169 0 138.01878493 112.24789504 250.3077466 250.30774661 250.3077466 138.07972144 0 250.43226954-112.29028598 250.43226953-250.3077466 0-15.37854766 12.39795227-27.88115168 27.75662875-27.88115169 15.37854766 0 27.88115168 12.50260402 27.88115168 27.88115169C818.07601003 430.41249568 680.78184031 567.6444033 512.00596135 567.6444033L512.00596135 567.6444033z" p-id="3158"></path></svg>