<?xml version="1.0" standalone="no"?><!DOCTYPE svg PUBLIC "-//W3C//DTD SVG 1.1//EN" "http://www.w3.org/Graphics/SVG/1.1/DTD/svg11.dtd"><svg t="1614829416268" class="icon" viewBox="0 0 1024 1024" version="1.1" xmlns="http://www.w3.org/2000/svg" p-id="3013" xmlns:xlink="http://www.w3.org/1999/xlink" width="200" height="200"><defs><style type="text/css"></style></defs><path d="M1021.54150457 522.86403698c0-46.42044359-37.54735161-84.15408242-83.85951516-84.60582912L937.68198941 204.42701141c0-65.99573618-53.70078094-119.70699605-119.71514596-119.70699605L204.97830571 84.72001536c-66.01436501 0-119.71514595 53.71242382-119.71514596 119.70699605l0 234.06638422C40.13857565 440.30154638 3.91852146 477.30866517 3.91852146 522.86403698c0 45.54605795 36.22005533 82.53221888 81.34463829 84.34153358l0 210.2076507c0 14.26843534 11.55562837 25.8252288 25.81358592 25.8252288l20.50789262 0 0 32.19042987c0 32.38952391 16.55743943 47.20867101 30.44282254 53.88939605 15.12186425 7.27218745 32.67244829 7.86015573 50.82264349 7.86015573l29.71397347 0c24.31048021 0 81.26546603 0 81.26546603-61.74955292l0-32.19042986 375.28373135 0 0 32.19042986c0 32.38952391 16.55860451 47.20867101 30.45213752 53.88939606 15.11371435 7.27218745 32.66429725 7.86015573 50.82264349 7.86015573l29.70465963 0c24.32095915 0 81.27594496 0 81.27594496-61.74955293l0-32.19042986 20.49857877 0c14.25679246 0 25.81242083-11.55679232 25.81242083-25.8252288L937.67966037 607.48034389C983.99298901 607.00996949 1021.54150457 569.27400277 1021.54150457 522.86403698zM55.54685725 522.86403698c0-17.09767339 13.06804793-31.03311986 29.71513856-32.74114162l0 65.47413219C68.61490403 553.86688626 55.54685725 539.95239538 55.54685725 522.86403698zM272.21168697 875.42887879c0 4.67930226-0.73699897 6.91824071-0.71720619 7.0754213-2.65459257 2.04450247-12.40090624 3.06675371-28.93040299 3.0667537l-29.71397347 0c-16.5283328 0-26.26649657-1.02225123-28.63467293-2.71280696-0.27710237-0.5099611-1.0117723-2.75006464-1.0117723-7.4293669l0-32.19042987 89.00802788 0L272.21168697 875.42887879zM839.75196786 875.42887879c0 4.67930226-0.74864185 6.91824071-0.72768399 7.0754213-2.65226467 2.04450247-12.39159239 3.06675371-28.93040298 3.0667537l-29.70465963 0c-16.53764665 0-26.2769755-1.02225123-28.63583687-2.71280696-0.27360939-0.5099611-1.02225123-2.75006464-1.02225124-7.4293669l0-32.19042987 89.01967076 0L839.75080391 875.42887879zM886.05365362 647.61126571L749.44575033 647.61126571c-14.25912149 0-25.81474987 11.55679232-25.81474987 25.8252288 0 14.26727139 11.55562837 25.82406371 25.81474987 25.82406371l136.60790329 0 0 92.3693477L136.88101661 791.62990706l0-92.3693477 136.61721713 0c14.25912149 0 25.81474987-11.55679232 25.81474987-25.82406371 0-14.26843534-11.55562837-25.8252288-25.81474987-25.8252288L136.88101661 647.61126571l0-106.32109512 749.17380209 0L886.05481757 647.61126571zM886.05365362 489.66882077L136.88101661 489.66882077 136.88101661 204.42701141c0-37.53803662 30.54993749-68.07866027 68.0972891-68.07866026l612.98737379 0c37.54851555 0 68.08797411 30.54062365 68.08797412 68.07866026L886.05365362 489.66882077zM937.68082432 555.83221533l0-65.96546447c17.84515015 0.47153949 32.24165831 15.05433486 32.24165831 32.99728612C969.92364771 540.81746717 955.52597561 555.39909859 937.68082432 555.83221533z" p-id="3014"></path></svg>