<?xml version="1.0" standalone="no"?><!DOCTYPE svg PUBLIC "-//W3C//DTD SVG 1.1//EN" "http://www.w3.org/Graphics/SVG/1.1/DTD/svg11.dtd"><svg t="1614829340239" class="icon" viewBox="0 0 1024 1024" version="1.1" xmlns="http://www.w3.org/2000/svg" p-id="1569" xmlns:xlink="http://www.w3.org/1999/xlink" width="200" height="200"><defs><style type="text/css"></style></defs><path d="M650.08408273 1009.1026963H373.91591727c-16.57008987 0-27.61681602-11.04672615-27.61681603-27.61681603V677.70089876H42.51411973c-16.57008987 0-27.61681602-11.04672615-27.61681603-27.61681603V373.91591727c0-16.57008987 11.04672615-27.61681602 27.61681603-27.61681603h303.78498151V42.51411973c0-16.57008987 11.04672615-27.61681602 27.61681603-27.61681603h276.16816546c16.57008987 0 27.61681602 11.04672615 27.61681603 27.61681603v303.78498151h303.78498151c16.57008987 0 27.61681602 11.04672615 27.61681603 27.61681603v276.16816546c0 16.57008987-11.04672615 27.61681602-27.61681603 27.61681603H677.70089876v303.78498151c0 16.57008987-11.04672615 27.61681602-27.61681603 27.61681603z m-248.55134814-55.23363336h220.93453082V650.08408273c0-16.57008987 11.04672615-27.61681602 27.61681732-27.61681732h303.78498021v-220.93453082H650.08408273c-16.57008987 0-27.61681602-11.04672615-27.61681732-27.61681732V70.13093706h-220.93453082v303.78498021c0 16.57008987-11.04672615 27.61681602-27.61681732 27.61681732H70.13093706v220.93453082h303.78498021c16.57008987 0 27.61681602 11.04672615 27.61681732 27.61681732v303.78498021z" fill="#4BB9A9" p-id="1570"></path></svg>