<?xml version="1.0" standalone="no"?><!DOCTYPE svg PUBLIC "-//W3C//DTD SVG 1.1//EN" "http://www.w3.org/Graphics/SVG/1.1/DTD/svg11.dtd"><svg t="1614829349983" class="icon" viewBox="0 0 1024 1024" version="1.1" xmlns="http://www.w3.org/2000/svg" p-id="1857" xmlns:xlink="http://www.w3.org/1999/xlink" width="200" height="200"><defs><style type="text/css"></style></defs><path d="M498.59635276 71.97071041c-6.79300908 232.17534476-194.44988374 419.71091471-426.6252285 426.62522729 6.91431257-232.17534476 194.44988374-419.83221821 426.6252285-426.62522729m13.10080296-52.03930134C240.21940209 19.93140907 20.05312641 240.09768353 20.05312641 511.69674066c0 12.49428427 0.97043039 24.74596155 1.81955606 36.99763883 12.25167728 0.97043039 24.50335456 1.81955606 36.99763883 1.81955606 271.59905712 0 491.6440281-220.16627446 491.6440281-491.64402931 0-12.49428427-0.97043039-24.74596155-1.81955607-36.99763761-12.25167728-0.97043039-24.50335456-1.94085956-36.99763761-1.94085956z" p-id="1858"></path><path d="M511.69715572 71.72810221c242.60746476 0 439.96863844 197.36117248 439.96863723 439.96863845S754.30462047 951.54407561 511.69715572 951.54407561 71.84982077 754.30420541 71.84982077 511.69674066s197.36117248-439.96863844 439.84733495-439.96863845m0-51.79669314C240.21940209 19.93140907 20.05312641 240.09768353 20.05312641 511.69674066s220.16627446 491.6440281 491.64402931 491.64402809 491.6440281-220.16627446 491.64402809-491.64402809-220.04497098-491.76533159-491.64402809-491.76533159z" p-id="1859"></path><path d="M950.81666727 538.38356176c-13.34341117 221.37931184-191.05337859 399.08928049-412.43269045 412.43269045 13.34341117-221.37931184 191.05337859-399.21058399 412.43269045-412.43269045m26.6868211-52.64582003C706.02573475 485.73774173 485.85946029 705.90401619 485.85946029 977.50307453c0 8.36995815 0.84912569 16.37600339 1.21303737 24.62465684 8.24865345 0.3639117 16.37600339 1.21303738 24.62465806 1.21303738 271.59905712 0 491.6440281-220.16627446 491.64402809-491.64402809 0-8.36995815-0.84912569-16.37600339-1.21303738-24.62465806-8.12734995-0.4852152-16.25469989-1.33434087-24.62465806-1.33434087z" p-id="1860"></path></svg>